<svg width="25" height="25" xmlns="http://www.w3.org/2000/svg" fill="none">
 <g>
  <title>Layer 1</title>
  <g stroke="null" id="svg_3">
   <path stroke="#000000" fill-rule="evenodd" clip-rule="evenodd" d="m9.82506,11.39735c0.02118,-1.62952 1.22888,-2.93379 2.70208,-2.91797c1.47321,0.01582 2.65774,1.34569 2.65035,2.97552c-0.00753,1.62967 -1.20415,2.94631 -2.6775,2.94552c-1.48699,-0.01557 -2.68275,-1.35798 -2.67494,-3.00307l0,0z" stroke-width="1.5" stroke-linecap="round" stroke-linejoin="round" id="svg_1"/>
   <path stroke="null" d="m0.50832,7.43439c-0.47849,0.37944 -0.58833,1.11612 -0.24532,1.64543c0.34301,0.52937 1.00896,0.65075 1.48745,0.27136l-1.24213,-1.91679zm7.36242,-4.38737l0.62106,0.9584l0.00117,-0.00093l-0.62223,-0.95747zm9.2571,0l-0.62226,0.95747l0.00128,0.00099l0.62098,-0.95847zm6.1218,6.30432c0.47856,0.37924 1.14445,0.2577 1.48742,-0.27161c0.34297,-0.52936 0.2331,-1.26602 -0.24546,-1.6454l-1.24196,1.91701zm-18.37932,2.04602c0,-0.65124 -0.47727,-1.17921 -1.066,-1.17921c-0.58873,0 -1.066,0.52797 -1.066,1.17921l2.13199,0zm-1.066,6.0077l1.066,0.0088l0,-0.0088l-1.066,0zm1.55082,4.22992l0.75933,-0.82765l-0.00001,0l-0.75932,0.82765zm3.80047,1.77794l-0.00782,1.17921l0.00782,0l0,-1.17921zm6.68876,0l0,1.17921l0.00782,-0.00016l-0.00782,-1.17906zm3.80049,-1.77794l0.75927,0.82765l-0.75927,-0.82765zm1.55081,-4.22992l-1.066,0l0,0.0088l1.066,-0.0088zm1.066,-6.0077c0,-0.65124 -0.47728,-1.17921 -1.066,-1.17921c-0.58871,0 -1.066,0.52797 -1.066,1.17921l2.13199,0zm-20.51123,-2.04617l6.74135,-5.34576l-1.24213,-1.9168l-6.74135,5.34577l1.24213,1.91679zm6.74252,-5.34668c2.39369,-1.90355 5.61896,-1.90355 8.01262,0l1.24451,-1.91495c-3.1373,-2.49486 -7.36432,-2.49486 -10.50159,0l1.24446,1.91495zm8.0139,0.00099l6.74278,5.34585l1.24196,-1.91701l-6.74278,-5.34577l-1.24196,1.91693zm-13.76854,7.39187l0,6.0077l2.13199,0l0,-6.0077l-2.13199,0zm0.00003,5.99906c-0.01269,1.89445 0.65547,3.71688 1.85748,5.06622l1.51863,-1.6553c-0.80512,-0.90391 -1.25267,-2.12447 -1.24417,-3.39346l-2.13193,-0.01745zm1.85748,5.06622c1.20202,1.34949 2.83941,2.11551 4.55197,2.12935l0.01563,-2.35827c-1.14707,-0.00943 -2.24383,-0.52247 -3.04896,-1.42638l-1.51865,1.6553zm4.55979,2.1295l6.68876,0l0,-2.35843l-6.68876,0l0,2.35843zm6.69658,-0.00016c1.71256,-0.01384 3.34993,-0.77985 4.55194,-2.12935l-1.51855,-1.6553c-0.80518,0.90391 -1.90202,1.41694 -3.04903,1.42638l0.01563,2.35827zm4.55194,-2.12935c1.20202,-1.34934 1.87018,-3.17177 1.85753,-5.06622l-2.13199,0.01745c0.00853,1.26899 -0.43905,2.48956 -1.24409,3.39346l1.51855,1.6553zm1.85753,-5.05757l0,-6.0077l-2.13199,0l0,6.0077l2.13199,0z" fill="#000000" id="svg_2"/>
  </g>
 </g>

</svg>