<?xml version="1.0" encoding="utf-8"?>
<svg version="1.1" xmlns="http://www.w3.org/2000/svg" width="1221" height="1219">
  <path d="M 0 0 C 3.611 0.001 7.222 -0.009 10.833 -0.017 C 17.962 -0.032 25.091 -0.037 32.221 -0.038 C 40.774 -0.04 49.327 -0.053 57.881 -0.067 C 78.541 -0.098 99.202 -0.11 119.863 -0.12 C 129.653 -0.125 139.443 -0.132 149.233 -0.139 C 182.803 -0.165 216.374 -0.186 249.944 -0.193 C 252.047 -0.194 254.151 -0.194 256.254 -0.195 C 258.362 -0.195 260.471 -0.196 262.579 -0.196 C 266.808 -0.197 271.037 -0.198 275.266 -0.199 C 276.314 -0.199 277.363 -0.199 278.443 -0.199 C 312.418 -0.207 346.394 -0.238 380.369 -0.285 C 416.365 -0.334 452.36 -0.362 488.355 -0.364 C 492.315 -0.364 496.274 -0.365 500.234 -0.365 C 501.208 -0.366 502.183 -0.366 503.187 -0.366 C 518.799 -0.368 534.411 -0.39 550.023 -0.419 C 565.745 -0.448 581.467 -0.454 597.189 -0.438 C 605.688 -0.43 614.186 -0.431 622.685 -0.46 C 687.153 -0.67 752.274 14.799 763.77 19.094 C 764.544 19.381 765.318 19.667 766.116 19.962 C 775.928 23.623 785.038 27.892 794.06 33.218 C 797.604 35.302 801.244 37.081 804.958 38.844 C 811.415 42.018 816.974 45.883 822.645 50.282 C 823.937 51.22 825.228 52.157 826.52 53.094 C 844.427 66.625 861.995 82.472 875.645 100.282 C 876.205 100.962 876.764 101.643 877.341 102.344 C 885.698 112.606 909.164 155.462 911.458 161.407 C 911.722 162.088 911.986 162.77 912.258 163.472 C 920.449 184.759 925.231 206.769 928.645 229.282 C 928.862 230.693 928.862 230.693 929.082 232.132 C 931.179 245.932 932.801 259.468 932.774 273.449 C 932.777 275.222 932.777 275.222 932.779 277.03 C 932.783 280.294 932.783 283.557 932.78 286.82 C 932.778 290.377 932.783 293.934 932.786 297.491 C 932.791 303.72 932.793 309.948 932.792 316.177 C 932.79 325.44 932.794 334.703 932.799 343.966 C 932.809 361.474 932.812 378.983 932.812 396.492 C 932.813 410.016 932.815 423.541 932.818 437.065 C 932.819 440.96 932.82 444.855 932.821 448.75 C 932.821 449.719 932.821 450.687 932.822 451.685 C 932.828 478.92 932.832 506.155 932.831 533.39 C 932.831 534.417 932.831 535.444 932.831 536.501 C 932.831 541.705 932.831 546.908 932.831 552.111 C 932.831 553.661 932.831 553.661 932.831 555.243 C 932.831 557.332 932.831 559.422 932.831 561.512 C 932.83 594.012 932.838 626.513 932.851 659.014 C 932.867 695.543 932.875 732.072 932.874 768.6 C 932.874 772.498 932.874 776.396 932.874 780.294 C 932.874 781.254 932.874 782.213 932.874 783.202 C 932.874 798.624 932.88 814.047 932.889 829.469 C 932.898 844.98 932.899 860.49 932.892 876.001 C 932.888 885.206 932.89 894.411 932.9 903.616 C 932.906 909.777 932.905 915.938 932.897 922.099 C 932.894 925.601 932.893 929.104 932.901 932.606 C 932.929 947.624 932.588 962.378 930.645 977.282 C 930.486 978.52 930.326 979.758 930.161 981.033 C 929.159 988.475 927.902 995.879 926.645 1003.282 C 926.488 1004.245 926.33 1005.208 926.167 1006.201 C 923.89 1019.772 920.126 1032.734 915.833 1045.782 C 915.589 1046.534 915.344 1047.287 915.092 1048.062 C 911.513 1059.007 907.005 1069.1 901.645 1079.282 C 900.819 1080.923 899.996 1082.566 899.177 1084.211 C 895.522 1091.369 875.204 1121.585 871.559 1125.961 C 869.764 1128.138 848.213 1151.197 844.044 1154.415 C 842.04 1155.974 840.153 1157.582 838.27 1159.282 C 834.394 1162.65 830.103 1165.347 825.809 1168.149 C 822.719 1170.232 819.78 1172.439 816.833 1174.719 C 805.012 1183.654 792.182 1190.345 778.645 1196.282 C 777.48 1196.793 776.315 1197.305 775.114 1197.833 C 738.137 1213.282 700.251 1219.949 660.332 1219.802 C 656.54 1219.792 652.748 1219.807 648.957 1219.817 C 642.343 1219.833 635.729 1219.835 629.116 1219.826 C 619.28 1219.813 609.445 1219.823 599.609 1219.837 C 582.033 1219.862 564.456 1219.864 546.88 1219.856 C 531.497 1219.849 516.113 1219.849 500.73 1219.856 C 498.66 1219.857 496.59 1219.858 494.52 1219.859 C 491.4 1219.86 488.28 1219.861 485.161 1219.863 C 456.189 1219.876 427.216 1219.881 398.244 1219.869 C 397.154 1219.869 396.064 1219.868 394.941 1219.868 C 386.09 1219.864 377.239 1219.861 368.388 1219.857 C 333.87 1219.842 299.353 1219.851 264.835 1219.879 C 225.981 1219.91 187.128 1219.925 148.274 1219.915 C 144.126 1219.914 139.977 1219.913 135.829 1219.912 C 134.807 1219.912 133.786 1219.911 132.734 1219.911 C 117.368 1219.908 102.003 1219.917 86.637 1219.933 C 69.149 1219.95 51.662 1219.95 34.174 1219.927 C 24.409 1219.915 14.644 1219.916 4.879 1219.937 C -1.669 1219.95 -8.216 1219.944 -14.764 1219.924 C -18.478 1219.913 -22.192 1219.91 -25.905 1219.929 C -60.78 1220.097 -93.45 1214.096 -125.635 1200.418 C -128.633 1199.166 -131.651 1197.975 -134.675 1196.786 C -154.149 1189.012 -170.576 1179.024 -186.355 1165.282 C -187.804 1164.145 -189.262 1163.019 -190.73 1161.907 C -204.427 1151.347 -216.588 1139.842 -227.355 1126.282 C -228.358 1125.044 -228.358 1125.044 -229.382 1123.782 C -231.393 1121.297 -233.378 1118.794 -235.355 1116.282 C -236.052 1115.404 -236.749 1114.526 -237.468 1113.622 C -247.834 1100.236 -256.186 1085.592 -263.355 1070.282 C -263.728 1069.502 -264.102 1068.722 -264.487 1067.919 C -287.611 1018.657 -289.572 966.468 -289.366 913.083 C -289.333 904.271 -289.349 895.458 -289.365 886.646 C -289.395 869.391 -289.381 852.137 -289.347 834.883 C -289.318 819.79 -289.305 804.698 -289.308 789.605 C -289.308 788.598 -289.309 787.591 -289.309 786.554 C -289.31 782.466 -289.31 778.377 -289.311 774.289 C -289.32 736.065 -289.285 697.841 -289.228 659.617 C -289.177 625.741 -289.16 591.865 -289.171 557.989 C -289.172 555.811 -289.173 553.634 -289.173 551.456 C -289.174 550.379 -289.174 549.303 -289.175 548.194 C -289.176 542.773 -289.178 537.352 -289.18 531.932 C -289.18 530.862 -289.18 529.792 -289.181 528.69 C -289.189 500.276 -289.174 471.862 -289.15 443.448 C -289.148 440.388 -289.145 437.327 -289.143 434.267 C -289.141 432.237 -289.14 430.207 -289.138 428.178 C -289.126 414.09 -289.124 400.003 -289.127 385.915 C -289.131 367.761 -289.119 349.607 -289.078 331.453 C -289.057 321.877 -289.049 312.302 -289.061 302.726 C -289.068 296.302 -289.056 289.879 -289.03 283.455 C -289.016 279.814 -289.009 276.174 -289.024 272.533 C -289.15 240.471 -284.28 209.571 -274.365 179.07 C -273.605 176.721 -272.866 174.366 -272.128 172.01 C -269.196 162.834 -265.673 154.288 -261.184 145.762 C -259.465 142.492 -257.862 139.188 -256.292 135.844 C -254 131.241 -251.305 127.42 -248.046 123.458 C -246.389 121.326 -245.104 119.2 -243.792 116.844 C -240.757 111.634 -237.163 106.919 -233.48 102.157 C -232.614 101.029 -232.614 101.029 -231.731 99.878 C -228.142 95.291 -224.338 91.113 -220.147 87.068 C -218.433 85.36 -216.885 83.592 -215.355 81.719 C -212.059 77.792 -208.255 74.59 -204.355 71.282 C -203.084 70.136 -201.813 68.99 -200.542 67.844 C -196.716 64.499 -192.676 61.538 -188.542 58.586 C -185.471 56.366 -182.451 54.091 -179.435 51.797 C -168.356 43.394 -157.126 36.437 -144.613 30.393 C -142.956 29.577 -141.309 28.741 -139.668 27.894 C -132.093 24.001 -124.403 20.738 -116.417 17.782 C -115.776 17.545 -115.136 17.308 -114.476 17.063 C -101.429 12.283 -21.336 -0.022 0 0 Z" fill="#785FF2" transform="translate(288.3545699287206,-0.28174055367708206)"/>
  <path d="M0 0 C0.50337891 0.43876465 1.00675781 0.8775293 1.52539062 1.32958984 C6.77875555 5.93747251 11.77167127 10.60447103 16.26953125 15.95703125 C18.22162974 18.26165317 20.264414 20.46784658 22.3125 22.6875 C55.18851917 59.24117556 76.41158539 106.61470686 84 155 C84.15936035 155.93408691 84.3187207 156.86817383 84.48291016 157.83056641 C88.90454383 184.07348596 88.63342469 211.81527477 84 238 C83.80664062 239.12003418 83.61328125 240.24006836 83.4140625 241.39404297 C78.91777289 266.76546729 71.40987617 290.88226438 60 314 C59.61231445 314.7930957 59.22462891 315.58619141 58.82519531 316.40332031 C50.39910072 333.48324179 40.01549089 349.23325565 28 364 C27.56816406 364.5347998 27.13632812 365.06959961 26.69140625 365.62060547 C14.98816679 380.00795746 1.84308336 393.84356023 -13 405 C-13.66016113 405.50950195 -14.32032227 406.01900391 -15.00048828 406.54394531 C-25.80579506 414.87763611 -36.85393838 422.24835341 -48.82324219 428.80224609 C-50.82584555 429.90417208 -52.80886356 431.03424862 -54.7890625 432.17578125 C-78.26185178 445.49293148 -105.46502168 453.01238827 -132 457 C-132.72767578 457.11182617 -133.45535156 457.22365234 -134.20507812 457.33886719 C-142.88173911 458.64242242 -151.50448954 459.30391683 -160.26831055 459.57104492 C-162.52007493 459.65597584 -164.75419912 459.81755158 -167 460 C-167.7839917 460.02602295 -168.5679834 460.0520459 -169.37573242 460.07885742 C-171.97499845 460.35014856 -173.70949897 460.72673221 -176 462 C-178.5340759 465.48361896 -179.93071082 469.29813934 -181.4375 473.3125 C-182.37368001 475.6091435 -183.3125248 477.90470239 -184.25390625 480.19921875 C-184.7142627 481.3495459 -185.17461914 482.49987305 -185.64892578 483.68505859 C-200.03649748 518.98582631 -221.33870876 552.22160653 -245 582 C-245.5067627 582.63824707 -246.01352539 583.27649414 -246.53564453 583.93408203 C-252.66520176 591.62596704 -258.8821461 599.17375411 -265.5859375 606.375 C-267.46335136 608.41645973 -269.27187812 610.48383179 -271.07421875 612.58984375 C-275.46655575 617.62602789 -280.18281839 622.33301931 -284.9152832 627.0456543 C-286.43491668 628.5599258 -287.94912517 630.0794743 -289.46289062 631.59960938 C-294.80281135 636.94356628 -300.23584891 642.11151567 -306 647 C-307.12995458 647.98447513 -308.25889111 648.97012019 -309.38671875 649.95703125 C-332.4300854 669.94907181 -353.99015449 683.17961359 -384.43164062 688.54345703 C-386.50723169 688.91240715 -388.57541915 689.3228595 -390.640625 689.74609375 C-421.00273952 695.50853695 -451.4286688 686.41200039 -477 670 C-481.53551466 666.90755066 -485.79340046 663.52774141 -490 660 C-490.84175781 659.29875 -491.68351562 658.5975 -492.55078125 657.875 C-517.07890418 636.76844716 -534.44000554 603.26153234 -537.17724609 570.90478516 C-537.40360366 566.72458357 -537.42872372 562.55060147 -537.39111328 558.36523438 C-537.375104 556.26365247 -537.39104259 554.1640227 -537.41015625 552.0625 C-537.43899381 533.6216325 -533.54158292 515.97061327 -528.90625 498.2109375 C-528.40131252 496.24565677 -527.89727336 494.28014505 -527.39405823 492.31442261 C-526.05211679 487.0823149 -524.69814181 481.85339379 -523.34175491 476.62501526 C-521.91765824 471.12657877 -520.50515831 465.62516458 -519.09155273 460.12402344 C-516.80875419 451.24559435 -514.51990852 442.3687481 -512.22607422 433.49316406 C-509.3895837 422.51684623 -506.56732523 411.53693919 -503.75390625 400.5546875 C-502.95853962 397.45067244 -502.16311162 394.34667311 -501.36767578 391.24267578 C-501.17606495 390.49490309 -500.98445412 389.74713039 -500.7870369 388.97669792 C-498.68377847 380.76985962 -496.5747892 372.56449626 -494.46484375 364.359375 C-494.18571136 363.27386793 -494.18571136 363.27386793 -493.90093994 362.16643143 C-492.60087809 357.11088959 -491.30049772 352.05542972 -490 347 C-489.81690529 346.28824615 -489.63381058 345.57649231 -489.44516754 344.84317017 C-488.52149207 341.25253723 -487.59779116 337.66191083 -486.67407227 334.07128906 C-485.0095823 327.60118742 -483.34516131 321.13106803 -481.6808548 314.66091919 C-481.31061928 313.22160621 -480.94037496 311.78229549 -480.57012177 310.34298706 C-474.92391357 288.39393574 -469.29049539 266.44163205 -463.66880131 244.48628902 C-462.35272996 239.34666299 -461.03579897 234.20725825 -459.71812916 229.0680418 C-455.34693254 212.01856189 -450.98669248 194.96646682 -446.66465759 177.90444946 C-444.99329062 171.30685998 -443.31679437 164.71057679 -441.63915348 158.11458015 C-440.27721163 152.75783719 -438.92206042 147.39943895 -437.57217789 142.0396452 C-436.73212731 138.71126297 -435.88541739 135.38459988 -435.03699112 132.05834389 C-434.65001247 130.53566496 -434.26568315 129.0123094 -433.88445663 127.48818016 C-430.41483257 113.62703166 -426.13325339 99.99347164 -420.125 87 C-419.78750732 86.26128662 -419.45001465 85.52257324 -419.10229492 84.76147461 C-418.40774101 83.2444863 -417.71044397 81.72875058 -417.01025391 80.21435547 C-416.03310397 78.07255994 -415.09638292 75.91719653 -414.16796875 73.75390625 C-409.1198572 62.21306399 -402.41543611 52.15280197 -395 42 C-394.55366211 41.38640625 -394.10732422 40.7728125 -393.64746094 40.140625 C-380.26751715 21.89619813 -364.85995683 4.92680844 -347 -9 C-345.9333603 -9.86660302 -344.86832866 -10.73518803 -343.8046875 -11.60546875 C-271.86923189 -70.01406659 -171.85819753 -84.14310408 0 0 Z " fill="#785FF2" transform="translate(557,319)"/>
  <path d="M 0 0 C 0.503 0.439 1.007 0.878 1.525 1.33 C 6.779 5.937 11.772 10.604 16.27 15.957 C 18.222 18.262 20.264 20.468 22.313 22.688 C 55.189 59.241 76.412 106.615 84 155 C 84.159 155.934 84.319 156.868 84.483 157.831 C 88.905 184.073 88.633 211.815 84 238 C 83.807 239.12 83.613 240.24 83.414 241.394 C 78.918 266.765 71.41 290.882 60 314 C 59.612 314.793 59.225 315.586 58.825 316.403 C 50.399 333.483 40.015 349.233 28 364 C 27.568 364.535 27.136 365.07 26.691 365.621 C 14.988 380.008 1.843 393.844 -13 405 C -13.66 405.51 -14.32 406.019 -15 406.544 C -25.806 414.878 -36.854 422.248 -48.823 428.802 C -50.826 429.904 -52.809 431.034 -54.789 432.176 C -78.262 445.493 -105.465 453.012 -132 457 C -132.728 457.112 -133.455 457.224 -134.205 457.339 C -142.882 458.642 -173.709 460.727 -176 462 C -178.534 465.484 -221.339 552.222 -245 582 C -245.507 582.638 -246.014 583.276 -246.536 583.934 C -252.665 591.626 -258.882 599.174 -265.586 606.375 C -267.463 608.416 -269.272 610.484 -271.074 612.59 C -275.467 617.626 -280.183 622.333 -284.915 627.046 C -286.435 628.56 -287.949 630.079 -289.463 631.6 C -294.803 636.944 -300.236 642.112 -306 647 C -307.13 647.984 -308.259 648.97 -309.387 649.957 C -332.43 669.949 -353.99 683.18 -384.432 688.543 C -386.507 688.912 -388.575 689.323 -390.641 689.746 C -421.003 695.509 -451.429 686.412 -477 670 C -481.536 666.908 -485.793 663.528 -490 660 C -490.842 659.299 -491.684 658.598 -492.551 657.875 C -517.079 636.768 -534.44 603.262 -537.177 570.905 C -537.404 566.725 -537.429 562.551 -537.391 558.365 C -537.375 556.264 -537.391 554.164 -537.41 552.063 C -537.439 533.622 -533.542 515.971 -528.906 498.211 C -528.401 496.246 -527.897 494.28 -527.394 492.314 C -526.052 487.082 -524.698 481.853 -523.342 476.625 C -521.918 471.127 -520.505 465.625 -519.092 460.124 C -516.809 451.246 -514.52 442.369 -512.226 433.493 C -509.39 422.517 -506.567 411.537 -503.754 400.555 C -502.959 397.451 -502.163 394.347 -501.368 391.243 C -501.176 390.495 -500.984 389.747 -500.787 388.977 C -498.684 380.77 -496.575 372.564 -494.465 364.359 C -494.186 363.274 -494.186 363.274 -493.901 362.166 C -492.601 357.111 -491.3 352.055 -490 347 C -489.817 346.288 -489.634 345.576 -489.445 344.843 C -488.521 341.253 -487.598 337.662 -486.674 334.071 C -485.01 327.601 -483.345 321.131 -481.681 314.661 C -481.311 313.222 -480.94 311.782 -480.57 310.343 C -474.924 288.394 -469.29 266.442 -463.669 244.486 C -462.353 239.347 -461.036 234.207 -459.718 229.068 C -455.347 212.019 -450.987 194.966 -446.665 177.904 C -444.993 171.307 -443.317 164.711 -441.639 158.115 C -440.277 152.758 -438.922 147.399 -437.572 142.04 C -436.732 138.711 -435.885 135.385 -435.037 132.058 C -434.65 130.536 -434.266 129.012 -433.884 127.488 C -430.415 113.627 -426.133 99.993 -420.125 87 C -419.788 86.261 -419.45 85.523 -419.102 84.761 C -418.408 83.244 -417.71 81.729 -417.01 80.214 C -416.033 78.073 -415.096 75.917 -414.168 73.754 C -409.12 62.213 -402.358 52.194 -395 42 C -369.524 6.705 -344.868 -10.735 -343.805 -11.605 C -271.869 -70.014 -131.956 -108.084 0 0 Z M -221 15 C -221.715 15.193 -222.431 15.386 -223.167 15.585 C -257.088 25.007 -288.078 44.34 -312 70 C -312.66 70.704 -313.32 71.408 -314 72.133 C -329.407 89.181 -340.555 108.741 -349.187 129.938 C -349.496 130.687 -349.805 131.436 -350.123 132.207 C -355.318 145.308 -358.589 158.904 -361.338 172.69 C -366.556 198.76 -373.28 224.402 -380.078 250.096 C -383.276 262.195 -386.405 274.311 -389.5 286.438 C -389.732 287.348 -389.965 288.258 -390.204 289.196 C -391.366 293.748 -392.526 298.3 -393.687 302.853 C -395.639 310.508 -397.6 318.16 -399.562 325.813 C -399.755 326.564 -399.948 327.315 -400.146 328.089 C -402.962 339.073 -405.785 350.056 -408.611 361.037 C -410.148 367.007 -411.684 372.977 -413.22 378.947 C -413.615 380.484 -414.011 382.02 -414.406 383.556 C -420.485 407.179 -420.485 407.179 -426.523 430.813 C -426.792 431.866 -427.06 432.92 -427.337 434.006 C -428.632 439.096 -429.925 444.187 -431.213 449.279 C -433.925 459.975 -436.694 470.654 -439.537 481.317 C -440.583 485.245 -441.621 489.177 -442.658 493.108 C -443.491 496.258 -444.332 499.407 -445.184 502.552 C -452.335 528.95 -458.358 556.368 -444.312 581.563 C -436.303 594.489 -424.68 601.496 -410 605 C -388.379 607.569 -370.404 598.952 -353.76 585.923 C -347.917 581.225 -342.417 576.179 -337 571 C -336.123 570.165 -335.247 569.329 -334.344 568.469 C -329.245 563.496 -324.662 558.285 -320.219 552.723 C -318.037 550.045 -315.767 547.487 -313.437 544.938 C -302.187 532.54 -277.427 495.314 -273.984 490.82 C -263.189 475.478 -254.362 458.241 -246.169 441.387 C -243.587 436.115 -240.942 430.874 -238.312 425.625 C -236.707 422.414 -235.101 419.202 -233.499 415.989 C -232.517 414.031 -226.557 401.214 -226.125 399 C -225.754 398.01 -225.382 397.02 -225 396 C -219.177 393.674 -191.669 392.761 -183.907 391.794 C -179.739 391.283 -175.586 390.881 -171.395 390.602 C -119.897 387.137 -72.862 365.588 -38.293 326.898 C -15.255 300.29 -1.024 269.37 6 235 C 6.235 233.903 6.469 232.806 6.711 231.676 C 12.269 201.508 8.826 168.887 -1 140 C -1.336 139.002 -1.336 139.002 -1.679 137.983 C -6.607 123.579 -13.581 110.264 -21 97 C -34.326 76.192 -48.881 64.008 -49.971 62.932 C -51.354 61.567 -52.739 60.203 -54.125 58.842 C -60.406 52.671 -63.243 51.422 -74.5 42.5 C -95.591 25.784 -121.187 17.511 -123.675 16.2 C -127.57 14.148 -154.394 9.823 -157.269 8.865 C -180.81 5.353 -197.952 8.562 -221 15 Z" fill="#040308" transform="translate(557,319)"/>
  <path d="M 0 0 C 1.102 0.039 2.204 0.078 3.339 0.118 C 9.36 0.36 15.284 0.834 21.265 1.56 C 23.038 1.658 24.811 1.733 26.586 1.771 C 68.926 2.953 109.777 12.628 147.265 32.56 C 147.979 32.934 148.693 33.307 149.428 33.692 C 168.275 43.596 185 55.892 200.723 70.24 C 202.5 71.862 204.29 73.47 206.09 75.068 C 211.571 79.958 216.568 84.923 221.265 90.56 C 222.074 91.481 222.882 92.401 223.715 93.349 C 235.08 106.347 244.799 120.525 253.265 135.56 C 253.659 136.252 254.053 136.945 254.459 137.658 C 269.649 164.582 279.5 194.051 284.265 224.56 C 284.377 225.271 284.489 225.982 284.604 226.715 C 289.244 257.475 287.76 289.197 281.265 319.56 C 281.005 320.798 281.005 320.798 280.739 322.062 C 273.784 354.285 260.485 384.175 242.265 411.56 C 241.82 412.231 241.374 412.902 240.914 413.593 C 234.704 422.829 227.654 431.252 220.265 439.56 C 219.811 440.078 219.356 440.596 218.887 441.13 C 182.911 482.048 130.214 514.751 75.145 518.789 C 68.012 519.133 60.881 519.124 53.742 519.106 C 51.422 519.115 49.103 519.125 46.784 519.137 C 40.581 519.165 34.379 519.169 28.176 519.168 C 21.659 519.171 15.142 519.196 8.625 519.22 C -2.283 519.256 -13.191 519.278 -24.099 519.289 C -35.319 519.301 -46.54 519.321 -57.76 519.353 C -58.455 519.355 -59.15 519.357 -59.866 519.358 C -63.355 519.368 -66.843 519.378 -70.331 519.388 C -99.132 519.471 -127.933 519.525 -156.735 519.56 C -156.963 520.702 -157.191 521.844 -157.427 523.02 C -167.435 573.064 -167.435 573.064 -168.091 576.344 C -168.529 578.532 -168.966 580.721 -169.404 582.909 C -170.504 588.414 -171.607 593.918 -172.713 599.422 C -174.779 609.705 -176.826 619.99 -178.803 630.29 C -179.696 634.938 -180.6 639.584 -181.504 644.231 C -181.93 646.438 -182.351 648.646 -182.767 650.855 C -183.342 653.907 -183.934 656.954 -184.53 660.002 C -184.694 660.901 -184.837 661.805 -185.028 662.727 C -186.054 667.669 -188.056 676.621 -188.071 674.782 C -190.818 675.262 -236.524 674.829 -241.203 674.804 C -250.381 674.751 -260.446 674.665 -269.623 674.56 C -267.705 665.73 -266.488 658.135 -264.683 649.947 C -263.884 646.318 -263.098 642.687 -262.311 639.056 C -261.864 636.997 -261.417 634.939 -260.97 632.881 C -258.094 619.643 -255.284 606.39 -252.469 593.139 C -251.498 588.569 -250.526 583.999 -249.554 579.43 C -248.225 573.183 -246.896 566.935 -245.568 560.688 C -245.232 559.107 -244.896 557.527 -244.559 555.946 C -244.393 555.161 -244.226 554.377 -244.054 553.569 C -241.704 542.519 -239.354 531.47 -237.004 520.42 C -236.219 516.73 -235.434 513.04 -234.65 509.349 C -234.502 508.653 -234.353 507.956 -234.201 507.239 C -233.907 505.854 -233.612 504.47 -233.318 503.085 C -232.61 499.752 -231.899 496.42 -231.181 493.088 C -229.928 487.258 -228.695 481.427 -227.57 475.571 C -227.193 473.617 -226.806 471.665 -226.419 469.713 C -225.943 467.311 -225.485 464.905 -225.047 462.496 C -223.749 456.04 -222.219 450.647 -216.735 446.56 C -213.783 445.634 -211.11 445.435 -208.026 445.433 C -207.078 445.43 -206.129 445.427 -205.152 445.424 C -204.113 445.425 -203.074 445.427 -202.004 445.429 C -200.898 445.427 -199.791 445.425 -198.652 445.422 C -194.931 445.416 -191.21 445.417 -187.49 445.418 C -184.827 445.415 -182.164 445.412 -179.502 445.408 C -173.759 445.4 -168.016 445.395 -162.273 445.391 C -153.182 445.386 -144.091 445.369 -135 445.35 C -131.887 445.344 -128.774 445.337 -125.661 445.331 C -124.883 445.33 -124.105 445.328 -123.303 445.326 C -114.445 445.308 -105.587 445.292 -96.728 445.277 C -95.514 445.275 -95.514 445.275 -94.275 445.273 C -81.182 445.251 -68.089 445.24 -54.997 445.233 C -41.537 445.225 -28.077 445.201 -14.617 445.165 C -6.327 445.143 1.963 445.133 10.253 445.139 C 15.948 445.143 21.643 445.131 27.338 445.108 C 30.615 445.096 33.892 445.092 37.169 445.101 C 54.898 445.145 70.608 443.875 87.14 436.935 C 88.38 436.424 88.38 436.424 89.644 435.903 C 105.44 429.237 119.568 420.832 133.265 410.56 C 134.151 409.919 135.037 409.279 135.949 408.619 C 173.751 380.124 196.143 334.786 202.832 288.654 C 203.579 281.507 203.464 274.301 203.453 267.123 C 203.452 266.362 203.451 265.602 203.45 264.819 C 203.365 232.997 196.765 202.165 180.265 174.56 C 179.871 173.893 179.476 173.225 179.069 172.537 C 169.736 156.859 158.469 142.067 144.355 130.349 C 142.758 128.982 141.218 127.546 139.707 126.084 C 124.732 111.658 106.878 101.949 87.265 95.31 C 86.293 94.981 85.32 94.651 84.318 94.311 C 68.806 89.254 54.854 88.118 38.661 88.144 C 36.403 88.136 34.145 88.128 31.886 88.118 C 25.789 88.094 19.692 88.089 13.596 88.087 C 7.196 88.081 0.797 88.058 -5.602 88.036 C -16.343 88.002 -27.084 87.978 -37.825 87.962 C -48.852 87.945 -59.878 87.925 -70.904 87.898 C -71.584 87.896 -72.264 87.895 -72.964 87.893 C -84.319 87.866 -95.673 87.834 -107.028 87.801 C -114.633 87.78 -170.642 87.706 -179.511 86.787 C -182.687 86.463 -197.925 86.238 -200.485 86.218 C -212.249 85.954 -212.249 85.954 -216.735 81.56 C -218.941 79.011 -220.943 76.351 -222.922 73.623 C -224.061 72.092 -225.203 70.563 -226.348 69.037 C -226.915 68.28 -227.481 67.524 -228.065 66.745 C -232.071 61.503 -236.415 56.543 -240.735 51.56 C -241.346 50.837 -241.957 50.114 -242.586 49.369 C -249.904 40.785 -258.024 32.727 -266.735 25.56 C -267.223 25.158 -267.711 24.756 -268.214 24.342 C -275.299 18.546 -282.463 13.174 -290.38 8.553 C -294.524 6.047 -298.239 3.954 -301.52 0.966 C -295.778 0.861 -292.518 0.427 -290.314 0.419 C -288.873 0.41 -288.873 0.41 -287.403 0.4 C -285.801 0.398 -285.801 0.398 -284.166 0.395 C -283.041 0.39 -281.916 0.384 -280.756 0.378 C -276.953 0.36 -273.15 0.35 -269.346 0.339 C -266.631 0.328 -263.916 0.316 -261.202 0.304 C -254.567 0.276 -247.931 0.252 -241.296 0.231 C -235.891 0.214 -230.485 0.195 -225.08 0.174 C -223.926 0.17 -223.926 0.17 -222.749 0.165 C -221.186 0.159 -219.624 0.153 -218.061 0.147 C -203.373 0.092 -188.686 0.042 -173.999 -0.006 C -161.448 -0.046 -148.897 -0.093 -136.345 -0.143 C -121.751 -0.201 -107.157 -0.256 -92.563 -0.306 C -90.998 -0.311 -89.433 -0.316 -87.868 -0.321 C -87.098 -0.324 -86.329 -0.327 -85.535 -0.329 C -80.161 -0.348 -74.787 -0.369 -69.414 -0.391 C -62.826 -0.418 -56.239 -0.441 -49.652 -0.459 C -46.303 -0.468 -42.954 -0.48 -39.605 -0.495 C -26.393 -0.554 -13.205 -0.473 0 0 Z" fill="#05040A" transform="translate(852.7345275878906,252.43984985351563)"/>
  <path d="M 0 0 C 9.694 7.995 12.834 27.435 16 39 C 16.171 39.624 28.956 86.345 30.773 110.141 C 31.01 113.127 31.284 116.108 31.563 119.09 C 33.833 144.231 35.498 169.271 34.028 194.425 C 33.965 195.525 33.902 196.625 33.837 197.758 C 33.651 200.942 33.455 204.125 33.255 207.308 C 33.172 208.725 33.172 208.725 33.087 210.171 C 30.991 241.943 16.76 276.394 -5.541 299.484 C -6.823 300.816 -8.064 302.189 -9.297 303.566 C -21.484 316.739 -37.916 324.412 -55 329 C -55.835 329.228 -56.671 329.456 -57.531 329.691 C -83.862 335.649 -108.501 327.338 -131 314 C -131.898 313.469 -171.939 280.655 -187 261 C -187.525 260.316 -194.121 251.705 -196.875 248.086 C -198.773 245.596 -200.684 243.12 -202.625 240.664 C -222.451 215.437 -254.351 153.239 -255.016 151.77 C -255.4 150.92 -257 147 -257 144 C -255.908 143.978 -255.904 144.055 -254.795 143.956 C -192.022 138.343 -131.748 124.799 -81 86 C -79.676 85.016 -78.352 84.033 -77.027 83.051 C -68.409 76.615 -60.312 69.888 -52.54 62.458 C -50.448 60.477 -48.318 58.542 -46.186 56.605 C -35.512 46.908 -4.362 8.962 0 0 Z" fill="#020104" transform="translate(1147,682)"/>
  <path d="M0 0 C26.46707863 22.25582696 40.94308335 51.68611064 44 86 C45.33106131 107.35244188 40.26291879 127.92897648 31 147 C30.29037109 148.48113281 30.29037109 148.48113281 29.56640625 149.9921875 C25.63022072 157.68614788 20.43762413 164.33233609 15 171 C14.32839844 171.82757812 13.65679688 172.65515625 12.96484375 173.5078125 C-5.23610767 194.96026859 -33.33981359 208.41474514 -61 212 C-94.99611815 214.351491 -125.81246936 207.39572149 -152.37109375 185.34375 C-171.43876332 168.34434176 -184.87578708 148.66293791 -192 124 C-192.34933594 122.87980469 -192.69867187 121.75960937 -193.05859375 120.60546875 C-201.20727122 89.3970484 -193.92420077 57.31308108 -178.24609375 29.9375 C-161.78809209 3.05482443 -135.52652426 -16.25378957 -105 -24 C-68.23523826 -32.48240271 -29.16899611 -24.18317847 0 0 Z " fill="#FEFEFE" transform="translate(940,427)"/>
  <path d="M 0 0 C 1.131 -0.006 2.263 -0.012 3.429 -0.019 C 5.816 -0.026 8.203 -0.023 10.59 -0.01 C 14.238 0.004 17.883 -0.03 21.531 -0.068 C 23.854 -0.069 26.177 -0.067 28.5 -0.062 C 29.588 -0.076 30.675 -0.089 31.796 -0.103 C 40.231 0.001 40.231 0.001 43.922 2.981 C 47.331 6.767 47.374 8.558 47.376 13.573 C 47.38 14.835 47.384 16.097 47.388 17.397 C 47.388 18.073 47.388 18.75 47.388 19.447 C 47.392 22.293 47.413 25.138 47.433 27.984 C 47.471 33.283 47.503 38.581 47.5 43.88 C 47.5 47.565 47.523 51.25 47.562 54.935 C 47.573 56.337 47.574 57.739 47.567 59.141 C 47.21 67.808 47.21 67.808 50.667 75.411 C 54.515 78.622 56.406 78.693 61.365 78.708 C 63.292 78.719 63.292 78.719 65.259 78.73 C 66.292 78.732 66.292 78.732 67.346 78.735 C 69.503 78.742 71.659 78.758 73.816 78.776 C 79.948 78.829 86.079 78.877 92.212 78.892 C 95.962 78.902 99.712 78.932 103.462 78.974 C 104.889 78.986 106.317 78.991 107.745 78.989 C 109.746 78.986 111.747 79.011 113.747 79.036 C 114.885 79.042 116.022 79.048 117.195 79.054 C 120.954 79.684 122.572 80.891 125.25 83.566 C 127.335 86.656 127.51 89.197 127.541 92.882 C 127.553 93.944 127.566 95.005 127.579 96.099 C 127.581 97.241 127.584 98.382 127.586 99.559 C 127.596 101.327 127.596 101.327 127.606 103.13 C 127.616 105.624 127.621 108.117 127.621 110.61 C 127.625 114.42 127.661 118.229 127.699 122.039 C 127.705 124.462 127.709 126.885 127.711 129.309 C 127.732 131.015 127.732 131.015 127.754 132.756 C 127.719 138.957 127.593 142.954 123.25 147.566 C 119.846 149.769 117.005 149.817 113 149.822 C 111.735 149.829 110.47 149.836 109.167 149.843 C 108.494 149.842 107.821 149.842 107.127 149.841 C 105.013 149.84 102.898 149.853 100.784 149.87 C 94.773 149.916 88.762 149.941 82.751 149.947 C 79.07 149.952 75.389 149.977 71.708 150.013 C 70.309 150.022 68.909 150.025 67.509 150.019 C 65.549 150.012 63.589 150.032 61.629 150.052 C 59.958 150.057 59.958 150.057 58.254 150.061 C 54.574 150.68 52.907 151.997 50.25 154.566 C 48.867 157.332 49.11 159.586 49.092 162.681 C 49.082 163.966 49.072 165.251 49.061 166.575 C 49.058 167.264 49.054 167.953 49.051 168.663 C 49.039 170.819 49.02 172.976 48.998 175.132 C 48.936 181.264 48.882 187.396 48.849 193.528 C 48.828 197.278 48.792 201.028 48.748 204.778 C 48.734 206.206 48.725 207.633 48.722 209.061 C 48.717 211.062 48.692 213.063 48.667 215.064 C 48.654 216.77 48.654 216.77 48.642 218.511 C 48.201 221.949 47.304 223.798 45.25 226.566 C 39.276 231.174 33.951 231.14 26.586 231.063 C 25.476 231.064 24.365 231.065 23.222 231.067 C 20.883 231.065 18.545 231.054 16.207 231.033 C 12.63 231.004 9.054 231.012 5.477 231.025 C 3.201 231.019 -3.519 231.299 -4.617 231.241 C -6.849 231.124 -20.483 233.198 -20.868 221.298 C -21.079 214.782 -21.006 218.555 -21.165 214.292 C -21.191 213.596 -21.266 211.024 -21.265 210.305 C -21.26 208.119 -21.17 207.807 -21.189 205.621 C -21.226 200.978 -21.24 196.335 -21.25 191.691 C -21.262 186.317 -21.284 180.942 -21.33 175.568 C -21.344 173.418 -21.339 171.269 -21.335 169.119 C -21.345 167.807 -21.355 166.496 -21.365 165.145 C -21.367 163.993 -21.369 162.84 -21.371 161.653 C -21.799 158.165 -22.597 156.328 -24.75 153.566 C -28.033 151.19 -31.121 151.315 -35.092 151.311 C -36.376 151.304 -37.661 151.297 -38.985 151.29 C -39.669 151.291 -40.353 151.291 -41.058 151.292 C -43.206 151.293 -45.354 151.28 -47.502 151.263 C -53.609 151.217 -59.715 151.192 -65.822 151.186 C -69.561 151.181 -73.3 151.156 -77.04 151.12 C -78.462 151.11 -79.884 151.108 -81.306 151.113 C -83.297 151.12 -89.251 151.356 -87.279 151.081 C -86.825 151.018 -64.97 150.181 -91.429 151.36 C -103.482 151.897 -101.47 127.145 -101.47 127.145 C -102.008 110.76 -102.131 119.394 -102.258 108.856 C -102.493 89.322 -107.65 79.711 -87.076 79.03 C -81.965 78.861 -89.554 78.875 -89.554 78.875 C -79.275 78.867 -77.578 78.377 -69.75 78.279 C -65.726 78.229 -61.702 78.183 -57.677 78.145 C -53.793 78.108 -49.909 78.061 -46.026 78.008 C -44.544 77.99 -43.063 77.975 -41.581 77.963 C -39.505 77.946 -37.43 77.917 -35.354 77.885 C -34.173 77.872 -32.992 77.859 -31.775 77.845 C -28.787 77.57 -27.134 77.366 -24.75 75.566 C -22.74 71.899 -22.5 68.72 -22.495 64.586 C -22.488 63.405 -22.481 62.223 -22.474 61.006 C -22.475 59.104 -22.475 59.104 -22.477 57.164 C -22.461 55.162 -22.446 53.159 -22.43 51.157 C -22.392 46.231 -22.375 41.305 -22.369 36.379 C -22.365 33.611 -22.35 30.843 -22.325 28.076 C -22.301 25.472 -22.294 22.869 -22.304 20.266 C -22.18 9.115 -22.18 9.115 -17.75 4.566 C -12.388 -0.42 -6.939 -0.032 0 0 Z" fill="#05040A" transform="translate(366.75,403.43359375)"/>
  <path d="M0 0 C9.85868137 7.87348615 16.01082357 19.89641658 17.6640625 32.328125 C18.93839984 47.31069115 15.02166351 61.88037754 5.4140625 73.640625 C-5.03251824 84.68415321 -18.75662859 90.14805558 -33.8359375 90.578125 C-47.62991576 90.1142567 -60.35218563 85.21963006 -70.375 75.55078125 C-81.70984237 62.70312127 -85.28236754 48.06499304 -84.3359375 31.328125 C-81.87499858 16.39277156 -74.22793718 5.50826664 -62.3359375 -3.671875 C-42.55676232 -17.27005794 -18.61912433 -13.32606223 0 0 Z " fill="#7960F3" transform="translate(897.3359375,480.671875)"/>
  <path d="M0 0 C2.56779544 2.56779544 2.25722437 3.55316603 2.2746582 7.12060547 C2.28419022 8.18866425 2.29372223 9.25672302 2.30354309 10.35714722 C2.30217598 12.09461716 2.30217598 12.09461716 2.30078125 13.8671875 C2.30720894 15.64659225 2.30720894 15.64659225 2.31376648 17.46194458 C2.31951863 19.97543702 2.32000357 22.48894611 2.31567383 25.00244141 C2.31251871 28.85217701 2.33594642 32.70114103 2.36132812 36.55078125 C2.36360146 38.98958236 2.36430445 41.42838554 2.36328125 43.8671875 C2.372491 45.02145233 2.38170074 46.17571716 2.39118958 47.36495972 C2.38496078 48.43932281 2.37873199 49.51368591 2.37231445 50.62060547 C2.37294388 51.56499481 2.3735733 52.50938416 2.3742218 53.48239136 C1.9376473 56.41948305 0.94912315 57.80398134 -1 60 C-1 58.02 -1 56.04 -1 54 C-0.34 54 0.32 54 1 54 C0.67 36.18 0.34 18.36 0 0 Z " fill="#100C30" transform="translate(492,489)"/>
  <path d="M0 0 C0.66 0 1.32 0 2 0 C1.35014905 4.71370756 -0.51561392 8.57686444 -2.5625 12.8125 C-3.0565332 13.85180664 -3.0565332 13.85180664 -3.56054688 14.91210938 C-4.36872251 16.61044948 -5.18368377 18.30555769 -6 20 C-6.66 20 -7.32 20 -8 20 C-6.54884678 15.42111848 -4.79418096 11.02350565 -2.875 6.625 C-2.59785156 5.98433594 -2.32070313 5.34367188 -2.03515625 4.68359375 C-1.35899615 3.12143075 -0.67981293 1.56057685 0 0 Z " fill="#664ED8" transform="translate(625,613)"/>
  <path d="M0 0 C2.33333333 2.33333333 4.66666667 4.66666667 7 7 C6.67 7.99 6.34 8.98 6 10 C4.99106869 8.90398831 3.99311775 7.79786082 3 6.6875 C2.1646875 5.76517578 2.1646875 5.76517578 1.3125 4.82421875 C0 3 0 3 0 0 Z " fill="#6850DD" transform="translate(577,337)"/>
  <path d="M0 0 C0.33 0 0.66 0 1 0 C1.36923077 7.50769231 1.36923077 7.50769231 -0.5 10 C-0.995 10.33 -1.49 10.66 -2 11 C-1 3.57142857 -1 3.57142857 0 0 Z " fill="#644DD5" transform="translate(161,631)"/>
  <path d="M0 0 C0.33 0 0.66 0 1 0 C1.36923077 6.4 1.36923077 6.4 -0.5 9.4375 C-0.995 9.953125 -1.49 10.46875 -2 11 C-2 9.02 -2 7.04 -2 5 C-1.34 5 -0.68 5 0 5 C0 3.35 0 1.7 0 0 Z " fill="#140D3C" transform="translate(493,538)"/>
</svg>